<svg width="24" height="24" viewBox="0 0 24 24" fill="none" xmlns="http://www.w3.org/2000/svg">
<rect width="24" height="24" fill="white" fill-opacity="0.01"/>
<path fill-rule="evenodd" clip-rule="evenodd" d="M13.5118 0.973926C12.8293 -0.171322 11.1707 -0.171322 10.4881 0.973928L0.257872 18.1388C-0.441331 19.3119 0.403992 20.7999 1.76972 20.7999H22.2302C23.596 20.7999 24.4413 19.3119 23.7421 18.1388L13.5118 0.973926ZM11.8625 1.79307C11.9246 1.68896 12.0754 1.68896 12.1374 1.79307L22.3677 18.958C22.4313 19.0645 22.3544 19.1999 22.2302 19.1999H1.76972C1.64557 19.1999 1.56871 19.0645 1.63228 18.958L11.8625 1.79307ZM10.923 7.17768C10.8995 6.56667 11.3885 6.05851 12 6.05851C12.6115 6.05851 13.1004 6.56667 13.0769 7.1777L12.8307 13.5791C12.8136 14.0255 12.4467 14.3785 12 14.3785C11.5533 14.3785 11.1864 14.0255 11.1692 13.5791L10.923 7.17768ZM13.1998 16.7615C13.1998 17.4242 12.6625 17.9615 11.9998 17.9615C11.3371 17.9615 10.7998 17.4242 10.7998 16.7615C10.7998 16.0988 11.3371 15.5615 11.9998 15.5615C12.6625 15.5615 13.1998 16.0988 13.1998 16.7615Z" fill="#D93D42"/>
</svg>
