<svg width="24" height="24" viewBox="0 0 24 24" fill="none" xmlns="http://www.w3.org/2000/svg">
<rect width="24" height="24" fill="white" fill-opacity="0.01"/>
<path fill-rule="evenodd" clip-rule="evenodd" d="M12.5092 1.89105C12.228 1.60988 11.7721 1.60988 11.4909 1.89105L6.69091 6.69105C6.40973 6.97224 6.40973 7.42811 6.69091 7.70929C6.9721 7.99046 7.42797 7.99046 7.70915 7.70929L11.28 4.13841V15.2C11.28 15.5976 11.6024 15.92 12 15.92C12.3977 15.92 12.72 15.5976 12.72 15.2V4.13841L16.291 7.70929C16.5721 7.99046 17.028 7.99046 17.3091 7.70929C17.5904 7.42811 17.5904 6.97224 17.3091 6.69105L12.5092 1.89105ZM3.99995 16C4.44178 16 4.79995 16.3581 4.79995 16.8V19.2C4.79995 20.0861 5.51299 20.8 6.39411 20.8H17.6019C18.4846 20.8 19.2 20.0845 19.2 19.2V16.8C19.2 16.3581 19.5582 16 20 16C20.4417 16 20.8 16.3581 20.8 16.8V19.2C20.8 20.9664 19.3699 22.4 17.6019 22.4H6.39411C4.62426 22.4 3.19995 20.9648 3.19995 19.2V16.8C3.19995 16.3581 3.55813 16 3.99995 16Z" fill="#2F265F"/>
</svg>
